<svg width="119" height="121" viewBox="0 0 119 121" fill="none"
    xmlns="http://www.w3.org/2000/svg">
    <path d="M88.8498 66H30.1502C27.3058 66 25 63.6484 25 60.7476V5.2524C25 2.35156 27.3058 0 30.1502 0H88.8498C91.6942 0 94 2.35156 94 5.2524V60.7476C94 63.6482 91.6942 66 88.8498 66Z" fill="#C4E1F6" fill-opacity="0.42"/>
    <path d="M108.794 121H10.2057C4.5693 121 0 116.328 0 110.564V57.4358C0 51.6722 4.5693 47 10.2059 47H108.794C114.431 47 119 51.6722 119 57.4358V110.564C119 116.328 114.431 121 108.794 121Z" fill="#C4E1F6"/>
    <path d="M102 66C104.761 66 107 63.7614 107 61C107 58.2386 104.761 56 102 56C99.2386 56 97 58.2386 97 61C97 63.7614 99.2386 66 102 66Z" fill="white"/>
    <path d="M88 66C90.7614 66 93 63.7614 93 61C93 58.2386 90.7614 56 88 56C85.2386 56 83 58.2386 83 61C83 63.7614 85.2386 66 88 66Z" fill="#FF473E"/>
    <path d="M88.509 72.8805H29.491C23.1801 72.8805 18 78.0516 18 84.5136V120.754H20.1579V121H100V84.5136C100 78.0516 94.8199 72.8805 88.509 72.8805ZM22.5556 97.9223V84.5136C22.5556 80.544 25.6142 77.2996 29.491 77.2996H88.509C92.3857 77.2996 95.4444 80.544 95.4444 84.5136V97.9223H22.5556ZM53.3348 14.0767H34.248C33.8542 14.0695 33.4789 13.9043 33.2029 13.6165C32.9269 13.3288 32.7722 12.9417 32.7722 12.5384C32.7722 12.1351 32.9269 11.7479 33.2029 11.4602C33.4789 11.1724 33.8542 11.0072 34.248 11H53.3348C53.7286 11.0072 54.1039 11.1724 54.3799 11.4602C54.6559 11.7479 54.8106 12.1351 54.8106 12.5384C54.8106 12.9417 54.6559 13.3288 54.3799 13.6165C54.1039 13.9043 53.7286 14.0695 53.3348 14.0767ZM86.3739 12.5384C86.3739 12.1304 86.2156 11.7391 85.9338 11.4506C85.6521 11.1621 85.2699 11 84.8715 11H60.715C60.3166 11 59.9345 11.1621 59.6527 11.4506C59.371 11.7391 59.2127 12.1304 59.2127 12.5384C59.2127 12.9463 59.371 13.3376 59.6527 13.6261C59.9345 13.9146 60.3166 14.0767 60.715 14.0767H84.8715C85.2699 14.0767 85.6521 13.9146 85.9338 13.6261C86.2156 13.3376 86.3739 12.9463 86.3739 12.5384ZM83.4557 36.1235C83.4557 35.7155 83.2974 35.3243 83.0156 35.0358C82.7339 34.7473 82.3517 34.5852 81.9533 34.5852H52.7332C52.3394 34.5924 51.9641 34.7576 51.6881 35.0454C51.4121 35.3331 51.2575 35.7202 51.2575 36.1235C51.2575 36.5268 51.4121 36.914 51.6881 37.2017C51.9641 37.4894 52.3394 37.6547 52.7332 37.6619H81.9533C82.3517 37.6619 82.7339 37.4998 83.0156 37.2113C83.2974 36.9228 83.4557 36.5315 83.4557 36.1235ZM76.4499 24.3311C76.4499 24.1291 76.4111 23.929 76.3356 23.7424C76.2601 23.5557 76.1494 23.3861 76.0099 23.2433C75.8704 23.1004 75.7048 22.9871 75.5225 22.9098C75.3402 22.8325 75.1449 22.7927 74.9476 22.7927H34.2477C33.8539 22.7999 33.4786 22.9652 33.2026 23.2529C32.9266 23.5406 32.772 23.9278 32.772 24.3311C32.772 24.7344 32.9266 25.1215 33.2026 25.4093C33.4786 25.697 33.8539 25.8622 34.2477 25.8694H74.9478C75.1451 25.8694 75.3404 25.8296 75.5227 25.7523C75.705 25.675 75.8706 25.5617 76.0101 25.4188C76.1495 25.276 76.2602 25.1064 76.3357 24.9198C76.4111 24.7331 76.45 24.5331 76.4499 24.3311ZM46.0682 36.1235C46.0682 35.7156 45.9098 35.3243 45.6281 35.0358C45.3464 34.7474 44.9643 34.5853 44.5658 34.5852H34.2477C33.8539 34.5924 33.4786 34.7576 33.2026 35.0454C32.9266 35.3331 32.772 35.7202 32.772 36.1235C32.772 36.5268 32.9266 36.914 33.2026 37.2017C33.4786 37.4894 33.8539 37.6547 34.2477 37.6619H44.5658C44.9643 37.6619 45.3464 37.4998 45.6282 37.2113C45.9099 36.9228 46.0682 36.5315 46.0682 36.1235Z" fill="black"/>
</svg>
