<svg width="122" height="120" viewBox="0 0 122 120" fill="none"
    xmlns="http://www.w3.org/2000/svg">
    <path d="M83.875 101.925L74.0006 92.2125L72 94.5L83.875 106L110.5 79L108.999 77.2125L83.875 101.925ZM34.3125 67.1297L61 67V70H34.3125V67.1297ZM34.3125 48H80V51.1406H34.3125V48ZM34.3125 29H80V32H34.3125V29Z" fill="#2D5BFF"/>
    <path d="M61 108H23C19.5 107.5 20 109.136 20 105L20 15C20 11 20 12 22.5 12L91.0001 12.0001C95.5001 12.5001 96.0001 11.0001 96.0001 14.6949V71.0001H93.0001V15.0001H23V105H61V108Z" fill="#2D5BFF"/>
</svg>
